<?xml version="1.0" standalone="no"?>
<svg xmlns:xlink="http://www.w3.org/1999/xlink" id="wave" style="transform:rotate(180deg); transition: 0.3s" viewBox="0 0 1440 100" version="1.1" xmlns="http://www.w3.org/2000/svg"><defs><linearGradient id="sw-gradient-0" x1="0" x2="0" y1="1" y2="0"><stop stop-color="rgba(255, 249, 234, 1)" offset="0%"/><stop stop-color="rgba(255, 249, 234, 1)" offset="100%"/></linearGradient></defs><path style="transform:translate(0, 0px); opacity:1" fill="url(#sw-gradient-0)" d="M0,50L26.7,50C53.3,50,107,50,160,55C213.3,60,267,70,320,63.3C373.3,57,427,33,480,30C533.3,27,587,43,640,51.7C693.3,60,747,60,800,51.7C853.3,43,907,27,960,23.3C1013.3,20,1067,30,1120,30C1173.3,30,1227,20,1280,26.7C1333.3,33,1387,57,1440,65C1493.3,73,1547,67,1600,66.7C1653.3,67,1707,73,1760,65C1813.3,57,1867,33,1920,20C1973.3,7,2027,3,2080,16.7C2133.3,30,2187,60,2240,73.3C2293.3,87,2347,83,2400,83.3C2453.3,83,2507,87,2560,73.3C2613.3,60,2667,30,2720,28.3C2773.3,27,2827,53,2880,68.3C2933.3,83,2987,87,3040,80C3093.3,73,3147,57,3200,45C3253.3,33,3307,27,3360,26.7C3413.3,27,3467,33,3520,40C3573.3,47,3627,53,3680,48.3C3733.3,43,3787,27,3813,18.3L3840,10L3840,100L3813.3,100C3786.7,100,3733,100,3680,100C3626.7,100,3573,100,3520,100C3466.7,100,3413,100,3360,100C3306.7,100,3253,100,3200,100C3146.7,100,3093,100,3040,100C2986.7,100,2933,100,2880,100C2826.7,100,2773,100,2720,100C2666.7,100,2613,100,2560,100C2506.7,100,2453,100,2400,100C2346.7,100,2293,100,2240,100C2186.7,100,2133,100,2080,100C2026.7,100,1973,100,1920,100C1866.7,100,1813,100,1760,100C1706.7,100,1653,100,1600,100C1546.7,100,1493,100,1440,100C1386.7,100,1333,100,1280,100C1226.7,100,1173,100,1120,100C1066.7,100,1013,100,960,100C906.7,100,853,100,800,100C746.7,100,693,100,640,100C586.7,100,533,100,480,100C426.7,100,373,100,320,100C266.7,100,213,100,160,100C106.7,100,53,100,27,100L0,100Z"/></svg>